<svg width="24" height="24" viewBox="0 0 24 24" fill="none" xmlns="http://www.w3.org/2000/svg">
<path fill-rule="evenodd" clip-rule="evenodd" d="M18 4H6C4.89543 4 4 4.89543 4 6V17.2378L6.72465 13.9682C7.31881 13.2552 8.3254 13.0447 9.15552 13.4597L11.7241 14.744L14.454 11.3316C15.2444 10.3436 16.7421 10.3286 17.5522 11.3006L20 14.238V6C20 4.89543 19.1046 4 18 4ZM6 22C4.27068 22 2.79768 20.9026 2.23939 19.3662L2.23169 19.3598L2.23544 19.3553C2.08305 18.9321 2 18.4757 2 18V6C2 3.79086 3.79086 2 6 2H18C20.2091 2 22 3.79086 22 6V18C22 20.2091 20.2091 22 18 22H6ZM8.2611 15.2486L4.70097 19.5208C5.05045 19.8196 5.50415 20 6 20H18C19.1046 20 20 19.1046 20 18V17.3621L16.0157 12.581L13.2858 15.9934C12.6967 16.7298 11.6731 16.9546 10.8296 16.5329L8.2611 15.2486ZM10 8.5C10 9.32843 9.32843 10 8.5 10C7.67157 10 7 9.32843 7 8.5C7 7.67157 7.67157 7 8.5 7C9.32843 7 10 7.67157 10 8.5Z" fill="#E0E0E0"/>
</svg>
