<svg width="14" height="18" viewBox="0 0 14 18" fill="none" xmlns="http://www.w3.org/2000/svg">
<path fill-rule="evenodd" clip-rule="evenodd" d="M6 5.41421L4.70711 6.70711C4.31658 7.09763 3.68342 7.09763 3.29289 6.70711C2.90237 6.31658 2.90237 5.68342 3.29289 5.29289L6.29289 2.29289C6.68342 1.90237 7.31658 1.90237 7.70711 2.29289L10.7071 5.29289C11.0976 5.68342 11.0976 6.31658 10.7071 6.70711C10.3166 7.09763 9.68342 7.09763 9.29289 6.70711L8 5.41421V15C8 15.5523 7.55228 16 7 16C6.44772 16 6 15.5523 6 15V5.41421ZM17 8C16.4477 8 16 8.44772 16  " fill="black"/>
</svg>
