<svg width="24" height="24" viewBox="0 0 24 24" fill="none" xmlns="http://www.w3.org/2000/svg">
<path fill-rule="evenodd" clip-rule="evenodd" d="M9 6H15V5C15 4.44772 14.5523 4 14 4H10C9.44772 4 9 4.44772 9 5V6ZM17 6V5C17 3.34315 15.6569 2 14 2H10C8.34315 2 7 3.34315 7 5V6H3C2.44772 6 2 6.44772 2 7C2 7.55228 2.44772 8 3 8H16H21C21.5523 8 22 7.55228 22 7C22 6.44772 21.5523 6 21 6H17ZM18 11C18 10.4477 18.4477 10 19 10C19.5523 10 20 10.4477 20 11V19C20 20.6569 18.6569 22 17 22H7C5.34315 22 4 20.6569 4 19V11C4 10.4477 4.44772 10 5 10C5.55228 10 6 10.4477 6 11V19C6 19.5523 6.44772 20 7 20H17C17.5523 20 18 19.5523 18 19V11ZM9 11C9 10.4477 9.44772 10 10 10C10.5523 10 11 10.4477 11 11V17C11 17.5523 10.5523 18 10 18C9.44772 18 9 17.5523 9 17V11ZM14 10C13.4477 10 13 10.4477 13 11V17C13 17.5523 13.4477 18 14 18C14.5523 18 15 17.5523 15 17V11C15 10.4477 14.5523 10 14 10Z" fill="black"/>
</svg>
