<svg width="25" height="25" viewBox="0 0 25 25" fill="none" xmlns="http://www.w3.org/2000/svg">
<path fill-rule="evenodd" clip-rule="evenodd" d="M21 10.0001C20.4477 10.0001 20 9.55238 20 9.00009L20 5.00009L16 5.00009C15.4477 5.00009 15 4.55238 15 4.00009C15 3.44781 15.4477 3.00009 16 3.00009L21 3.00009C21.5523 3.00009 22 3.44781 22 4.00009L22 9.00009C22 9.55238 21.5523 10.0001 21 10.0001Z" fill="black"/>
<path fill-rule="evenodd" clip-rule="evenodd" d="M11.2929 13.7072C10.9024 13.3167 10.8713 12.7146 11.2234 12.3625L19.3392 4.24665C19.6914 3.89449 20.2935 3.92559 20.684 4.31612C21.0745 4.70664 21.1056 5.3087 20.7534 5.66086L12.6376 13.7767C12.2855 14.1288 11.6834 14.0977 11.2929 13.7072Z" fill="black"/>
<path fill-rule="evenodd" clip-rule="evenodd" d="M8 6C6.34315 6 5 7.34315 5 9V17C5 18.6569 6.34315 20 8 20H16C17.6569 20 19 18.6569 19 17V14C19 13.4477 19.4477 13 20 13C20.5523 13 21 13.4477 21 14V17C21 19.7614 18.7614 22 16 22H8C5.23858 22 3 19.7614 3 17V9C3 6.23858 5.23858 4 8 4H11C11.5523 4 12 4.44772 12 5C12 5.55228 11.5523 6 11 6H8Z" fill="black"/>
</svg>
