<svg width="40" height="40" viewBox="0 0 40 40" fill="none" xmlns="http://www.w3.org/2000/svg">
<circle cx="20" cy="20" r="20" fill="#1F84DB"/>
<path fill-rule="evenodd" clip-rule="evenodd" d="M14.1707 11H13.25C12.5479 11 12 11.5589 12 12.2222V27.7778C12 28.4411 12.5479 29 13.25 29H26.75C27.4521 29 28 28.4411 28 27.7778V12.2222C28 11.5589 27.4521 11 26.75 11H25.8293C25.4175 12.1652 24.3062 13 23 13H17C15.6938 13 14.5825 12.1652 14.1707 11ZM25.8293 9H26.75C28.5332 9 30 10.431 30 12.2222V27.7778C30 29.569 28.5332 31 26.75 31H13.25C11.4668 31 10 29.569 10 27.7778V12.2222C10 10.431 11.4668 9 13.25 9H14.1707C14.5825 7.83481 15.6938 7 17 7H23C24.3062 7 25.4175 7.83481 25.8293 9ZM16 10C16 9.44772 16.4477 9 17 9H23C23.5523 9 24 9.44772 24 10C24 10.5523 23.5523 11 23 11H17C16.4477 11 16 10.5523 16 10ZM16 17C15.4477 17 15 17.4477 15 18C15 18.5523 15.4477 19 16 19H24C24.5523 19 25 18.5523 25 18C25 17.4477 24.5523 17 24 17H16ZM15 23C15 22.4477 15.4477 22 16 22H20C20.5523 22 21 22.4477 21 23C21 23.5523 20.5523 24 20 24H16C15.4477 24 15 23.5523 15 23Z" fill="white"/>
</svg>
